<svg preserveAspectRatio="none" overflow="visible" style="display: block;" width="19.5714" height="19.5714" viewBox="0 0 19.5714 19.5714" fill="none" xmlns="http://www.w3.org/2000/svg">
<g id="Group">
<path id="Vector" d="M0.5 9.78572C0.5 7.32299 1.47831 4.96113 3.21972 3.21972C4.96113 1.47831 7.32299 0.5 9.78572 0.5C12.2484 0.5 14.6103 1.47831 16.3517 3.21972C18.0931 4.96113 19.0714 7.32299 19.0714 9.78572C19.0714 12.2484 18.0931 14.6103 16.3517 16.3517C14.6103 18.0931 12.2484 19.0714 9.78572 19.0714C7.32299 19.0714 4.96113 18.0931 3.21972 16.3517C1.47831 14.6103 0.5 12.2484 0.5 9.78572ZM19.0714 9.78572H0.5" stroke="black" stroke-linecap="round" stroke-linejoin="round"/>
<path id="Vector_2" d="M13.3577 9.78572C13.1823 13.1814 11.9315 16.4334 9.78627 19.0714C7.64102 16.4334 6.39027 13.1814 6.21484 9.78572C6.39027 6.39001 7.64102 3.13807 9.78627 0.5C11.9315 3.13807 13.1823 6.39001 13.3577 9.78572Z" stroke="black" stroke-linecap="round" stroke-linejoin="round"/>
</g>
</svg>
