<svg preserveAspectRatio="none" overflow="visible" style="display: block;" width="127.025" height="18.4679" viewBox="0 0 127.025 18.4679" fill="none" xmlns="http://www.w3.org/2000/svg">
<g id="Logo elements">
<path id="Vector" d="M119.787 18.2693C117.622 18.2693 116.158 15.8549 117.218 13.8836C117.995 12.4167 118.921 11.0414 119.817 9.65085C120.056 9.26882 120.041 9.00905 119.802 8.64231C118.996 7.40456 118.219 6.13624 117.443 4.88321C116.322 3.08007 116.92 0.971306 118.831 0.207262C120.056 -0.281726 121.445 0.100296 122.207 1.2922C123.491 3.294 124.745 5.34164 126 7.35871C126.298 7.8477 126.597 8.33669 126.911 8.82568C127.045 9.03961 127.075 9.22298 126.926 9.45219C125.358 11.9583 123.804 14.4796 122.221 16.9857C121.639 17.872 120.803 18.2998 119.787 18.2693Z" fill="#F1C34E"/>
<path id="Vector_2" d="M110.543 18.4675C108.378 18.4675 106.914 16.0531 107.975 14.0819C108.751 12.6149 109.677 11.2396 110.573 9.84909C110.812 9.46707 110.797 9.20729 110.558 8.84055C109.752 7.6028 108.975 6.33449 108.199 5.08145C107.079 3.27831 107.676 1.16955 109.587 0.405504C110.812 -0.0834839 112.201 0.298538 112.963 1.49045C114.247 3.49224 115.501 5.53988 116.756 7.55696C117.055 8.04594 117.353 8.53493 117.667 9.02392C117.801 9.23785 117.831 9.42122 117.682 9.65044C116.114 12.1565 114.561 14.6778 112.963 17.1839C112.41 18.0549 111.574 18.4828 110.543 18.4675Z" fill="#F1C34E"/>
<path id="Vector_3" d="M43.1463 17.2154C41.7723 17.2154 40.5477 17.2307 39.3082 17.2001C39.1439 17.2001 38.9348 16.9404 38.8303 16.7417C38.0687 15.4428 37.307 14.1287 36.5753 12.8145C36.3662 12.4325 36.1123 12.2797 35.6941 12.3103C35.2312 12.3408 34.7533 12.3561 34.2754 12.3103C33.7676 12.2644 33.5884 12.4172 33.6034 12.9673C33.6482 14.144 33.6183 15.3206 33.6183 16.5125C33.6183 16.7264 33.6183 16.9404 33.6183 17.2307C32.4385 17.2307 31.3184 17.246 30.2133 17.2154C30.1088 17.2154 29.9744 17.0168 29.8997 16.8945C29.8549 16.8028 29.8848 16.6653 29.8848 16.5431C29.8848 12.1422 29.8848 7.74127 29.8848 3.34038C29.8848 1.78173 30.4074 1.2469 31.9307 1.2469C33.7228 1.2469 35.5 1.21634 37.2921 1.27746C40.4432 1.39971 42.8177 4.02802 42.6236 7.1606C42.519 8.87206 41.8171 10.2779 40.3984 11.2559C40.04 11.5004 39.9952 11.699 40.2192 12.0658C41.0854 13.5327 41.9217 15.0303 42.7729 16.5125C42.8775 16.6959 42.9671 16.8945 43.1463 17.2154ZM33.6183 6.8397C33.6183 7.4815 33.6034 8.12329 33.6332 8.74981C33.6482 8.90262 33.8423 9.16239 33.9618 9.16239C34.9624 9.17767 35.963 9.22352 36.9486 9.10127C38.0985 8.96374 38.7855 8.04689 38.7855 6.8397C38.7855 5.64779 38.0985 4.74622 36.9187 4.60869C35.948 4.48644 34.9624 4.51701 33.9916 4.53229C33.8572 4.53229 33.6332 4.80734 33.6183 4.97543C33.6034 5.60195 33.6183 6.21318 33.6183 6.8397Z" fill="#008CA9"/>
<path id="Vector_4" d="M84.4692 1.277C85.7236 1.277 86.9183 1.277 88.1429 1.277C88.1429 6.57946 88.1429 11.8666 88.1429 17.1844C86.9333 17.1844 85.7535 17.1844 84.499 17.1844C84.4841 16.9552 84.4692 16.7565 84.4692 16.5426C84.4692 14.877 84.4542 13.2266 84.4692 11.561C84.4692 11.1179 84.3347 10.9651 83.9017 10.9651C82.3186 10.9804 80.7207 10.9804 79.1377 10.9651C78.7344 10.9651 78.5851 11.0873 78.6 11.5152C78.615 13.1808 78.615 14.8311 78.615 16.4968C78.615 16.7107 78.615 16.9246 78.615 17.215C77.4202 17.215 76.2852 17.215 75.1502 17.1997C75.0606 17.1997 74.9262 17.0163 74.8814 16.8941C74.8366 16.7718 74.8665 16.619 74.8665 16.4815C74.8665 11.6374 74.8814 6.7934 74.8516 1.94936C74.8516 1.38396 74.971 1.17003 75.5535 1.20059C76.5391 1.24644 77.5397 1.21587 78.5851 1.21587C78.5851 3.30935 78.5851 5.32643 78.5851 7.38935C78.824 7.40463 79.0033 7.45047 79.1974 7.45047C80.7506 7.45047 82.3037 7.43519 83.8569 7.46575C84.3646 7.48103 84.4841 7.29766 84.4841 6.80868C84.4542 5.1889 84.4692 3.56913 84.4692 1.94936C84.4692 1.73542 84.4692 1.52149 84.4692 1.277Z" fill="#008CA9"/>
<path id="Vector_5" d="M9.63253 1.26131C10.9019 1.26131 12.0817 1.26131 13.3063 1.26131C13.3063 6.57906 13.3063 11.8662 13.3063 17.2146C12.1564 17.2146 11.0513 17.2298 9.93121 17.1993C9.82667 17.1993 9.64746 16.8784 9.63253 16.695C9.60266 15.0294 9.58772 13.379 9.63253 11.7134C9.64746 11.0869 9.43838 10.9341 8.85595 10.9494C7.40734 10.98 5.94379 10.98 4.49518 10.9494C3.92768 10.9341 3.70367 11.0564 3.73354 11.6982C3.77834 13.3332 3.73354 14.9835 3.76341 16.6186C3.77834 17.1076 3.61406 17.2298 3.15111 17.2146C2.26999 17.184 1.38888 17.184 0.507761 17.2146C0.119473 17.2298 0 17.0923 0 16.695C0.0149341 11.6982 0.0149341 6.68602 0 1.68918C0.0149341 1.33772 0.149341 1.21547 0.492827 1.23075C1.38888 1.24603 2.29986 1.26131 3.19591 1.23075C3.629 1.21547 3.77834 1.33772 3.76341 1.79614C3.73354 3.4312 3.74847 5.08153 3.74847 6.71659C3.74847 6.93052 3.74847 7.14445 3.74847 7.40423C3.97248 7.43479 4.13676 7.46535 4.30103 7.46535C5.86912 7.46535 7.43721 7.45007 9.00529 7.48063C9.45332 7.48063 9.61759 7.35838 9.61759 6.8694C9.61759 5.02041 9.63253 3.1867 9.63253 1.26131Z" fill="#008CA9"/>
<path id="Vector_6" d="M102.359 1.29252C102.359 2.31634 102.374 3.34016 102.329 4.3487C102.329 4.45567 102.001 4.63904 101.821 4.63904C100.014 4.65432 98.2074 4.65432 96.4003 4.65432C95.9224 4.65432 95.4595 4.68488 94.9816 4.65432C94.5336 4.62376 94.3992 4.82241 94.4141 5.25027C94.444 5.81566 94.444 6.36578 94.4141 6.93117C94.3842 7.40488 94.5485 7.55768 95.0115 7.55768C96.7737 7.5424 98.5508 7.57297 100.313 7.5424C100.91 7.52712 101.12 7.69521 101.075 8.30645C101.015 8.97881 101.045 9.66645 101.075 10.3388C101.09 10.7667 100.94 10.8889 100.537 10.8889C98.7151 10.8736 96.8782 10.9042 95.0563 10.8736C94.5634 10.8736 94.3842 11.0264 94.4141 11.5307C94.444 12.035 94.4589 12.5393 94.4141 13.0282C94.3693 13.5936 94.5485 13.7923 95.1309 13.777C97.3113 13.7464 99.4917 13.777 101.672 13.7464C102.225 13.7464 102.389 13.9145 102.359 14.4646C102.314 15.2287 102.329 15.9927 102.359 16.7415C102.374 17.1082 102.24 17.2305 101.881 17.2152C98.7151 17.1999 95.564 17.2152 92.398 17.1999C91.3526 17.1999 90.7104 16.5428 90.7104 15.4732C90.6955 11.2862 90.6955 7.11454 90.7104 2.92758C90.7104 1.8732 91.3377 1.2314 92.3532 1.2314C95.5491 1.21612 98.7599 1.2314 101.956 1.2314C102.075 1.2314 102.195 1.26196 102.359 1.29252Z" fill="#008CA9"/>
<path id="Vector_7" d="M27.5401 4.6541C26.9876 4.6541 26.5246 4.6541 26.0616 4.6541C24.1202 4.6541 22.1788 4.66938 20.2373 4.63882C19.7893 4.63882 19.5952 4.76107 19.625 5.23478C19.6549 5.80017 19.6549 6.35028 19.625 6.91567C19.5952 7.38938 19.7594 7.54219 20.2224 7.54219C22.0294 7.52691 23.8365 7.54219 25.6435 7.52691C26.1214 7.52691 26.3155 7.64916 26.2857 8.16871C26.2409 8.87163 26.2558 9.57455 26.2857 10.2622C26.3155 10.7359 26.1662 10.8887 25.6883 10.8887C23.8962 10.8581 22.119 10.904 20.3269 10.8734C19.8042 10.8581 19.5653 10.9957 19.6101 11.5763C19.6549 12.1112 19.64 12.6613 19.6101 13.1961C19.5802 13.6393 19.7594 13.7921 20.1925 13.7768C22.4177 13.7615 24.628 13.7921 26.8532 13.7615C27.4356 13.7462 27.5999 13.9449 27.57 14.5103C27.5252 15.2743 27.5551 16.0231 27.57 16.7871C27.57 17.1233 27.4505 17.2303 27.122 17.2303C23.9261 17.215 20.7302 17.2303 17.5193 17.215C16.5785 17.215 15.9214 16.5426 15.9214 15.5799C15.9064 11.3318 15.9064 7.09904 15.9214 2.85096C15.9214 1.88826 16.5486 1.24647 17.4596 1.23119C20.6854 1.21591 23.8962 1.21591 27.122 1.23119C27.2713 1.23119 27.5401 1.384 27.5401 1.49096C27.5551 2.53006 27.5401 3.55388 27.5401 4.6541Z" fill="#008CA9"/>
<path id="Vector_8" d="M60.3496 15.6557C60.8126 14.6013 61.2307 13.6234 61.6787 12.5995C62.3956 12.8746 63.0527 13.1649 63.7397 13.3789C65.024 13.7762 66.3083 14.1735 67.6673 13.8526C68.0258 13.7609 68.4141 13.5622 68.6679 13.3025C69.1458 12.7982 68.9367 11.9272 68.2199 11.6368C67.1596 11.1937 66.0395 10.8575 64.9643 10.4449C64.2176 10.1546 63.4708 9.84897 62.7689 9.46695C59.812 7.8319 60.0808 3.62966 62.9332 2.00988C64.337 1.21528 65.8454 0.986064 67.4284 1.09303C69.2802 1.23056 71.0425 1.76539 72.7748 2.68224C72.3716 3.62966 71.9982 4.56179 71.5801 5.46336C71.5353 5.55505 71.1769 5.53977 70.9827 5.49392C69.8328 5.18831 68.6978 4.80628 67.518 4.57707C66.8609 4.45482 66.159 4.56179 65.487 4.66876C64.9792 4.74516 64.5909 5.08134 64.5461 5.67729C64.5013 6.24269 64.8 6.59415 65.2779 6.77752C66.622 7.28179 67.981 7.70965 69.3101 8.24448C70.012 8.53482 70.7288 8.88628 71.2963 9.37527C73.7306 11.4535 73.0884 15.2584 70.0867 16.6642C68.3095 17.5047 66.4427 17.5505 64.561 17.1685C63.0975 16.8629 61.6937 16.4198 60.3496 15.6557Z" fill="#008CA9"/>
<path id="Vector_9" d="M58.6914 7.17528C58.0791 4.34831 56.4961 2.31596 53.7482 1.44495C50.8958 0.528094 48.2375 1.0018 46.0571 3.17169C43.8618 5.35685 43.354 8.13797 43.9215 11.133C45.0117 16.9856 51.1795 18.8957 55.376 16.2216C57.885 14.6323 58.8557 12.1568 58.9303 8.94786C58.8855 8.56584 58.8407 7.86292 58.6914 7.17528ZM53.3599 13.0737C51.4633 14.4184 48.8946 13.6391 47.9985 11.4692C47.3862 9.98696 47.3862 8.47415 47.9985 6.99191C48.6108 5.49438 49.9997 4.63865 51.5529 4.7609C53.1658 4.88315 54.4053 5.90696 54.8234 7.48089C54.9728 8.06157 55.0325 8.65752 55.1371 9.2382C55.0475 10.7663 54.6592 12.1568 53.3599 13.0737Z" fill="#008CA9"/>
</g>
</svg>
